HIERARCHY
ROOT Hips
{
	OFFSET 0.00000 0.00000 0.00000
	CHANNELS 6 Xposition Yposition Zposition Zrotation Yrotation Xrotation 
	JOINT LHipJoint
	{
		OFFSET 0 0 0
		CHANNELS 3 Zrotation Yrotation Xrotation
		JOINT LeftHip
		{
			OFFSET 1.84395 -1.68683 0.74144
			CHANNELS 3 Zrotation Yrotation Xrotation
			JOINT LeftKnee
			{
				OFFSET 2.27037 -6.23779 0.00000
				CHANNELS 3 Zrotation Yrotation Xrotation
				JOINT LeftAnkle
				{
					OFFSET 2.56918 -7.05877 0.00000
					CHANNELS 3 Zrotation Yrotation Xrotation
					JOINT LeftToe
					{
						OFFSET 0.22276 -0.61202 1.71784
						CHANNELS 3 Zrotation Yrotation Xrotation
						End Site
						{
							OFFSET 0.00000 -0.00000 0.91613
						}
					}
				}
			}
		}
	}
	JOINT RHipJoint
	{
		OFFSET 0 0 0
		CHANNELS 3 Zrotation Yrotation Xrotation
		JOINT RightHip
		{
			OFFSET -1.76833 -1.68684 0.74144
			CHANNELS 3 Zrotation Yrotation Xrotation
			JOINT RightKnee
			{
				OFFSET -2.49360 -6.85110 0.00000
				CHANNELS 3 Zrotation Yrotation Xrotation
				JOINT RightAnkle
				{
					OFFSET -2.55538 -7.02085 0.00000
					CHANNELS 3 Zrotation Yrotation Xrotation
					JOINT RightToe
					{
						OFFSET -0.21516 -0.59115 1.68050
						CHANNELS 3 Zrotation Yrotation Xrotation
						End Site
						{
							OFFSET -0.00000 -0.00000 0.89604
						}
					}
				}
			}
		}
	}
	JOINT lowerback
	{
		OFFSET 0 0 0
		CHANNELS 3 Zrotation Yrotation Xrotation
		JOINT Chest
		{
			OFFSET 0.06382 1.72312 -0.19613
			CHANNELS 3 Zrotation Yrotation Xrotation
			JOINT Chest2
			{
				OFFSET -0.00055 1.73507 0.23859
				CHANNELS 3 Zrotation Yrotation Xrotation
				JOINT lowerneck
				{
					OFFSET 0 0 0
					CHANNELS 3 Zrotation Yrotation Xrotation
					JOINT Neck
					{
						OFFSET 0.03638 1.65562 0.09633
						CHANNELS 3 Zrotation Yrotation Xrotation
						JOINT Head
						{
							OFFSET 0.06388 1.62807 -0.32386
							CHANNELS 3 Zrotation Yrotation Xrotation
							End Site
							{
								OFFSET 0.00995 1.67644 -0.12021
							}
						}
					}
				}
				JOINT LeftCollar
				{
					OFFSET 0 0 0
					CHANNELS 3 Zrotation Yrotation Xrotation
					JOINT LeftShoulder
					{
						OFFSET 3.09648 1.42991 0.28122
CHANNELS 3 Zrotation Xrotation Yrotation
						JOINT LeftElbow
						{
OFFSET 0 -5.118780 -0.000000
CHANNELS 3 Zrotation Xrotation Yrotation
							JOINT LeftWrist
							{
OFFSET 0 -3.599710 0.000000
CHANNELS 3 Zrotation Xrotation Yrotation
								JOINT lhand
								{
									OFFSET 0 0 0
CHANNELS 3 Zrotation Xrotation Yrotation
									JOINT LFingers
									{
OFFSET 0 -0.628770 0.000000
CHANNELS 3 Zrotation Xrotation Yrotation
										End Site
										{
OFFSET 0 -0.506930 0.000000
										}
									}
								}
								JOINT LThumb
								{
OFFSET 0 0.000000 0.000000
CHANNELS 3 Zrotation Xrotation Yrotation
									End Site
									{
OFFSET 0 -0.514670 0.514670
									}
								}
							}
						}
					}
				}
				JOINT RightCollar
				{
					OFFSET 0 0 0
					CHANNELS 3 Zrotation Yrotation Xrotation
					JOINT RightShoulder
					{
						OFFSET -3.33565 1.14597 0.05047
CHANNELS 3 Zrotation Xrotation Yrotation
						JOINT RightElbow
						{
OFFSET 0 -5.490200 0.000000
CHANNELS 3 Zrotation Xrotation Yrotation
							JOINT RightWrist
							{
OFFSET 0 -3.206590 -0.000000
CHANNELS 3 Zrotation Xrotation Yrotation
								JOINT rhand
								{
									OFFSET 0 0 0
CHANNELS 3 Zrotation Xrotation Yrotation
									JOINT RFingers
									{
OFFSET 0 -0.691880 0.000000
CHANNELS 3 Zrotation Xrotation Yrotation
										End Site
										{
OFFSET 0 -0.557810 0.000000
										}
									}
								}
								JOINT RThumb
								{
OFFSET 0 0.000000 0.000000
CHANNELS 3 Zrotation Xrotation Yrotation
									End Site
									{
OFFSET 0 -0.566330 0.566330
									}
								}
							}
						}
					}
				}
			}
		}
	}
}
MOTION
Frames: 6
Frame Time: 0.008333333333333333
-0.337947 17.650801 7.450304 -8.028947 -1.751761 15.846545 0.000000 0.000000 0.000000 -12.720838 -47.115441 13.347294 0.046065 -1.384788 -3.808191 -5.471250 44.967285 -47.253242 1.112506 6.700845 18.832131 0.000000 0.000000 0.000000 20.643577 27.094887 -7.376893 -0.077693 -1.798399 4.948834 1.039495 -19.813065 -17.052033 -0.007910 -0.574163 1.577733 4.968478 0.148814 12.618318 3.371373 1.323364 -2.470016 0.552444 0.462673 -9.759001 2.165357 -2.988022 -17.979322 2.259319 -5.341206 21.023822 -0.290740 -2.038592 9.642549 0.000000 0.000000 0.000000 29.457872 -15.858125 -57.525613 119.094539 -56.528410 84.900600 39.140736 -82.414295 -8.374182 0.000000 0.000000 0.000000 -7.125000 0.000000 0.000000 10.828853 40.487095 1.214653 0.000000 0.000000 0.000000 -41.850952 -29.246718 60.050487 -116.487149 -57.134863 -82.712985 16.377111 -68.893648 64.042646 0.000000 0.000000 0.000000 7.125000 0.000000 0.000000 83.426652 -67.586364 107.031863
-0.343586 17.642867 7.485047 -8.002199 -1.588888 15.714305 0.000000 0.000000 0.000000 -13.305676 -47.429907 14.199959 0.049450 -1.434537 -3.945299 -5.585849 45.282670 -47.593047 1.089328 6.632895 18.632245 0.000000 0.000000 0.000000 20.797744 26.842010 -7.102110 -0.077369 -1.794812 4.939053 1.036170 -19.789635 -17.043905 -0.006457 -0.517402 1.421681 5.025451 0.121954 12.086382 3.317678 1.265368 -2.717719 0.478782 0.428527 -9.720604 1.954437 -3.061982 -17.101025 2.217812 -5.388789 21.937556 -0.270467 -2.070320 9.805759 0.000000 0.000000 0.000000 30.306272 -16.092963 -58.157126 123.262110 -55.361561 88.355253 39.742058 -81.994724 -8.478433 0.000000 0.000000 0.000000 -7.125000 0.000000 0.000000 11.386271 40.689851 1.219008 0.000000 0.000000 0.000000 -43.041092 -28.579118 60.222147 -122.479766 -55.585566 -87.707887 14.365892 -69.548576 64.495625 0.000000 0.000000 0.000000 7.125000 0.000000 0.000000 84.923619 -68.261558 107.923187
-0.347769 17.636265 7.520311 -7.893422 -1.390621 15.418375 0.000000 0.000000 0.000000 -14.021704 -47.408955 15.007891 0.051874 -1.469219 -4.040799 -5.790722 45.479245 -47.353412 1.030576 6.457027 18.116560 0.000000 0.000000 0.000000 20.935409 26.414957 -6.670940 -0.076921 -1.789087 4.923106 1.025387 -19.713737 -17.017641 -0.003947 -0.407017 1.118448 5.009215 0.072332 11.476367 3.260259 1.158307 -2.960268 0.451457 0.375566 -9.632504 1.931187 -3.080680 -15.488142 2.032886 -5.340685 22.579146 -0.300762 -2.076628 9.724282 0.000000 0.000000 0.000000 31.933074 -17.141409 -58.086826 126.557157 -54.289980 91.051938 40.317966 -81.480300 -8.310478 0.000000 0.000000 0.000000 -7.125000 0.000000 0.000000 11.880935 40.538677 1.328672 0.000000 0.000000 0.000000 -45.048264 -28.475206 59.788098 -127.623510 -53.901690 -91.914435 18.315006 -71.837290 63.405387 0.000000 0.000000 0.000000 7.125000 0.000000 0.000000 81.543870 -66.878810 105.740959
-0.353901 17.640403 7.540977 -7.870465 -0.958521 15.071886 0.000000 0.000000 0.000000 -13.915748 -46.669883 14.765344 0.050656 -1.452376 -3.994585 -5.882766 44.997720 -45.853028 0.962179 6.245391 17.498110 0.000000 0.000000 0.000000 21.179429 26.150458 -6.218538 -0.078080 -1.803015 4.961516 1.046086 -19.913107 -17.216980 -0.003712 -0.394260 1.083286 5.068926 -0.055397 10.959806 3.268369 0.972268 -3.220453 0.466396 0.280759 -9.621296 1.353053 -3.139696 -13.990524 2.372978 -5.373109 23.696064 -0.073144 -2.095838 9.864796 0.000000 0.000000 0.000000 34.359866 -19.085486 -56.523350 129.436584 -53.217288 93.374452 41.036530 -84.884587 -8.296458 0.000000 0.000000 0.000000 -7.125000 0.000000 0.000000 12.525527 40.601761 1.382567 0.000000 0.000000 0.000000 -47.901259 -29.086276 58.084871 -132.203921 -52.058184 -95.572811 21.964159 -75.736034 61.683924 0.000000 0.000000 0.000000 7.125000 0.000000 0.000000 79.819048 -52.060346 84.801634
-0.360514 17.648051 7.559585 -7.914702 -0.508111 14.603370 0.000000 0.000000 0.000000 -13.804500 -45.782285 14.566947 0.047925 -1.412867 -3.885655 -5.864026 44.355547 -44.296665 0.887208 6.001419 16.789454 0.000000 0.000000 0.000000 21.563007 25.832076 -5.608416 -0.077736 -1.798583 4.949316 1.062450 -20.100887 -17.457329 -0.004974 -0.455237 1.250927 5.223324 -0.186021 10.472575 3.291278 0.795541 -3.429862 0.439935 0.186157 -9.570523 1.025252 -3.176199 -12.304204 2.387369 -5.357754 24.734797 0.012818 -2.115998 9.922456 0.000000 0.000000 0.000000 37.614793 -21.606145 -54.049958 131.731168 -52.267262 95.200230 40.718049 -88.883363 -7.749550 0.000000 0.000000 0.000000 -7.125000 0.000000 0.000000 12.169687 39.867871 1.565282 0.000000 0.000000 0.000000 -51.603124 -30.204641 55.310673 -135.910370 -50.300232 -98.459905 23.260668 -78.690605 60.172672 0.000000 0.000000 0.000000 7.125000 0.000000 0.000000 99.860540 64.799611 -73.353793
-0.365872 17.654307 7.584474 -7.937542 -0.199603 14.013719 0.000000 0.000000 0.000000 -14.146813 -45.053695 14.937450 0.045865 -1.382387 -3.801624 -6.081647 44.152170 -42.849609 0.745134 5.507979 15.364873 0.000000 0.000000 0.000000 21.986682 25.413467 -4.850647 -0.077478 -1.795595 4.941095 1.052402 -20.136804 -17.716167 -0.006413 -0.515026 1.415247 5.322658 -0.270161 9.916639 3.314940 0.663953 -3.601670 0.433957 0.118146 -9.436628 0.767723 -3.222620 -10.335390 2.309458 -5.351854 25.745700 0.061320 -2.151419 9.911095 0.000000 0.000000 0.000000 41.550581 -24.310770 -50.975907 133.797403 -51.338142 96.824200 40.394032 -90.538249 -7.289168 0.000000 0.000000 0.000000 -7.125000 0.000000 0.000000 11.824877 39.247812 1.703168 0.000000 0.000000 0.000000 -55.975050 -31.445911 51.710600 -138.835722 -48.732523 -100.686194 22.592341 -79.675663 58.970129 0.000000 0.000000 0.000000 7.125000 0.000000 0.000000 97.174901 64.928171 -70.318777
